<?xml version="1.0" encoding="UTF-8" standalone="no"?>
<!DOCTYPE svg PUBLIC "-//W3C//DTD SVG 1.1//EN" "http://www.w3.org/Graphics/SVG/1.1/DTD/svg11.dtd">
<svg xmlns="http://www.w3.org/2000/svg" version="1.1" viewBox="0.00 0.00 444.00 167.00">
<g stroke-width="2.00" fill="none" stroke-linecap="butt">
<path stroke="#888888" vector-effect="non-scaling-stroke" d="
  M 129.13 40.57
  L 129.13 22.34
  Q 129.13 22.00 128.80 22.00
  L 123.25 22.00
  A 0.50 0.50 0.0 0 0 122.75 22.50
  L 122.75 40.98
  A 5.40 5.40 0.0 0 0 128.15 46.38
  L 138.51 46.38
  A 5.64 5.63 -0.1 0 0 144.14 40.75
  L 144.14 22.34
  A 0.33 0.33 0.0 0 0 143.82 22.01
  L 138.31 21.99
  Q 137.86 21.99 137.86 22.44
  L 137.86 40.65
  Q 137.86 41.00 137.51 41.00
  L 129.57 41.00
  Q 129.13 41.00 129.13 40.57"
/>
<path stroke="#888888" vector-effect="non-scaling-stroke" d="
  M 163.75 35.05
  L 155.07 22.63
  A 1.44 1.41 72.2 0 0 153.90 22.01
  L 149.51 21.99
  Q 149.00 21.99 149.00 22.49
  L 149.00 45.96
  Q 149.00 46.41 149.46 46.41
  L 154.93 46.38
  A 0.46 0.46 0.0 0 0 155.39 45.92
  L 155.35 33.75
  Q 155.35 32.69 155.96 33.56
  L 164.60 45.95
  A 0.93 0.91 72.6 0 0 165.33 46.34
  L 169.73 46.43
  A 0.64 0.63 -88.7 0 0 170.38 45.80
  L 170.38 22.32
  Q 170.38 22.00 170.06 22.00
  L 164.50 22.00
  Q 164.12 22.00 164.12 22.38
  L 164.12 34.93
  Q 164.12 35.56 163.75 35.05"
/>
<path stroke="#888888" vector-effect="non-scaling-stroke" d="
  M 194.38 39.50
  L 203.32 39.50
  A 5.56 5.55 -0.1 0 0 208.88 33.93
  L 208.87 27.68
  A 5.69 5.69 0.0 0 0 203.18 22.00
  L 188.12 22.00
  Q 187.50 22.00 187.50 22.63
  L 187.50 46.22
  Q 187.50 46.44 187.72 46.43
  L 193.46 46.33
  Q 193.75 46.33 193.75 46.04
  L 193.75 40.12
  Q 193.75 39.50 194.38 39.50"
/>
<path stroke="#888888" vector-effect="non-scaling-stroke" d="
  M 235.1173 27.6727
  A 5.73 5.73 0.0 0 0 229.3673 21.9627
  L 219.4074 21.9975
  A 5.73 5.73 0.0 0 0 213.6974 27.7474
  L 213.7427 40.7073
  A 5.73 5.73 0.0 0 0 219.4927 46.4173
  L 229.4526 46.3825
  A 5.73 5.73 0.0 0 0 235.1626 40.6326
  L 235.1173 27.6727"
/>
<path stroke="#888888" vector-effect="non-scaling-stroke" d="
  M 246.25 27.95
  Q 246.25 27.40 246.80 27.40
  L 260.25 27.37
  Q 260.63 27.37 260.63 26.99
  L 260.62 22.43
  Q 260.62 22.00 260.18 22.00
  L 240.50 22.01
  A 0.50 0.49 0.0 0 0 240.00 22.50
  L 240.00 40.75
  A 5.50 5.50 0.0 0 0 245.50 46.25
  L 260.18 46.25
  Q 260.60 46.25 260.61 45.82
  L 260.65 41.45
  Q 260.65 41.00 260.20 41.00
  L 246.74 41.00
  Q 246.24 41.00 246.24 40.49
  L 246.26 37.30
  Q 246.27 36.86 246.70 36.86
  L 258.27 36.88
  Q 258.67 36.88 258.67 36.48
  L 258.59 32.04
  Q 258.58 31.50 258.04 31.50
  L 246.75 31.50
  A 0.50 0.50 0.0 0 1 246.25 31.00
  L 246.25 27.95"
/>
<path stroke="#888888" vector-effect="non-scaling-stroke" d="
  M 283.50 33.80
  L 283.50 45.96
  Q 283.50 46.41 283.95 46.41
  L 289.37 46.39
  A 0.39 0.39 0.0 0 0 289.75 46.00
  L 289.75 22.50
  Q 289.75 22.00 289.25 22.00
  L 284.06 22.00
  A 1.04 1.03 -76.0 0 0 283.17 22.54
  L 277.95 32.52
  A 0.34 0.34 0.0 0 1 277.35 32.52
  L 272.23 22.68
  Q 271.88 22.00 271.11 22.00
  L 266.00 22.00
  Q 265.50 22.00 265.50 22.50
  L 265.50 46.09
  Q 265.50 46.42 265.84 46.42
  L 271.53 46.33
  Q 271.87 46.32 271.87 45.98
  L 271.86 34.22
  Q 271.86 32.63 272.56 34.05
  Q 273.86 36.68 275.19 39.51
  Q 276.01 41.25 277.97 41.09
  Q 279.34 40.98 279.91 39.76
  Q 281.35 36.64 283.07 33.68
  Q 283.50 32.93 283.50 33.80"
/>
<path stroke="#888888" vector-effect="non-scaling-stroke" d="
  M 308.52 39.50
  Q 310.08 39.50 309.87 41.05
  Q 309.64 42.74 309.70 45.65
  Q 309.71 46.37 310.44 46.38
  L 315.46 46.43
  A 0.67 0.66 0.0 0 0 316.13 45.77
  Q 316.17 36.25 316.16 28.43
  Q 316.15 22.00 309.24 21.97
  Q 303.98 21.95 299.91 22.06
  A 5.45 5.45 0.0 0 0 294.60 27.51
  L 294.61 45.74
  Q 294.61 46.38 295.24 46.38
  L 300.55 46.40
  Q 301.00 46.40 301.00 45.95
  L 301.00 40.50
  Q 301.00 39.50 302.00 39.50
  L 308.52 39.50"
/>
<path stroke="#888888" vector-effect="non-scaling-stroke" d="
  M 354.5424 27.7874
  A 5.76 5.76 0.0 0 0 348.8026 22.0073
  L 338.9427 21.9729
  A 5.76 5.76 0.0 0 0 333.1626 27.7127
  L 333.1176 40.6126
  A 5.76 5.76 0.0 0 0 338.8574 46.3927
  L 348.7173 46.4271
  A 5.76 5.76 0.0 0 0 354.4974 40.6873
  L 354.5424 27.7874"
/>
<path stroke="#888888" vector-effect="non-scaling-stroke" d="
  M 391.00 41.41
  A 0.41 0.41 0.0 0 0 390.59 41.00
  L 378.26 41.00
  A 0.41 0.41 0.0 0 1 377.85 40.59
  L 377.87 22.41
  A 0.41 0.41 0.0 0 0 377.46 22.00
  L 371.90 22.00
  A 0.41 0.41 0.0 0 0 371.49 22.41
  L 371.50 42.45
  A 0.41 0.41 0.0 0 0 371.62 42.74
  L 375.11 46.27
  A 0.41 0.41 0.0 0 0 375.40 46.39
  L 390.59 46.42
  A 0.41 0.41 0.0 0 0 391.00 46.01
  L 391.00 41.41"
/>
<path stroke="#888888" vector-effect="non-scaling-stroke" d="
  M 402.06 39.50
  L 408.44 39.50
  Q 409.62 39.50 409.62 40.69
  L 409.60 45.37
  Q 409.60 46.38 410.62 46.39
  L 415.06 46.40
  Q 416.03 46.40 416.03 45.43
  Q 415.96 36.78 416.01 27.78
  C 416.04 23.69 412.87 22.00 409.13 21.96
  Q 404.45 21.91 399.94 22.04
  A 5.47 5.47 0.0 0 0 394.61 27.51
  L 394.62 45.75
  A 0.64 0.64 0.0 0 0 395.26 46.39
  L 400.27 46.36
  Q 400.90 46.35 400.90 45.73
  L 400.87 40.69
  Q 400.87 39.50 402.06 39.50"
/>
<path stroke="#f8ceb8" vector-effect="non-scaling-stroke" d="
  M 27.64 119.50
  Q 25.34 121.82 22.48 124.62
  C 15.68 131.29 24.57 139.93 31.16 133.25
  Q 37.07 127.26 43.02 121.18
  A 3.87 3.84 22.1 0 1 45.77 120.03
  L 100.25 120.00
  A 1.02 1.02 0.0 0 0 101.27 119.04
  Q 101.41 117.01 101.41 114.75
  Q 101.44 74.69 101.32 27.24
  A 0.75 0.75 0.0 0 0 100.57 26.49
  L 29.24 26.57
  A 0.69 0.69 0.0 0 0 28.55 27.26
  L 28.25 118.03
  Q 28.25 118.89 27.64 119.50"
/>
<path stroke="#888888" vector-effect="non-scaling-stroke" d="
  M 160.57 109.13
  L 142.50 57.93
  Q 142.31 57.38 141.73 57.38
  L 123.30 57.36
  Q 122.70 57.36 122.71 57.97
  C 122.83 61.62 122.19 65.64 123.51 69.07
  Q 136.19 102.15 149.62 137.39
  A 0.94 0.94 0.0 0 0 150.50 138.00
  L 171.48 138.00
  A 1.10 1.10 0.0 0 0 172.51 137.29
  Q 184.87 104.45 198.20 69.62
  C 199.68 65.76 199.02 61.93 199.17 58.03
  Q 199.20 57.36 198.52 57.36
  L 180.26 57.37
  A 0.91 0.90 9.4 0 0 179.40 57.98
  L 161.30 109.13
  Q 160.94 110.16 160.57 109.13"
/>
<path stroke="#888888" vector-effect="non-scaling-stroke" d="
  M 215.37 121.84
  A 0.41 0.41 0.0 0 1 214.96 122.25
  L 209.29 122.25
  A 0.41 0.41 0.0 0 0 208.88 122.66
  L 208.85 137.59
  A 0.41 0.41 0.0 0 0 209.26 138.00
  L 242.59 138.00
  A 0.41 0.41 0.0 0 0 243.00 137.59
  L 243.00 122.65
  A 0.41 0.41 0.0 0 0 242.59 122.24
  L 236.91 122.25
  A 0.41 0.41 0.0 0 1 236.50 121.84
  L 236.50 74.05
  A 0.41 0.41 0.0 0 1 236.91 73.64
  L 242.59 73.65
  A 0.41 0.41 0.0 0 0 243.00 73.24
  L 243.00 57.77
  A 0.41 0.41 0.0 0 0 242.59 57.36
  L 209.28 57.37
  A 0.41 0.41 0.0 0 0 208.87 57.78
  L 208.86 73.26
  A 0.41 0.41 0.0 0 0 209.27 73.67
  L 214.95 73.61
  A 0.41 0.41 0.0 0 1 215.36 74.02
  L 215.37 121.84"
/>
<path stroke="#888888" vector-effect="non-scaling-stroke" d="
  M 257.13 57.37
  A 0.38 0.37 0.0 0 0 256.75 57.74
  L 256.75 137.46
  Q 256.75 138.01 257.30 138.01
  Q 286.28 138.01 313.57 137.98
  C 315.25 137.98 316.55 138.29 317.85 136.96
  Q 322.38 132.32 327.47 127.35
  A 2.61 2.58 68.2 0 0 328.25 125.49
  L 328.25 69.99
  A 1.52 1.51 -67.4 0 0 327.82 68.93
  L 316.78 57.83
  Q 316.31 57.37 315.65 57.37
  L 257.13 57.37"
/>
<path stroke="#888888" vector-effect="non-scaling-stroke" d="
  M 365.64 116.20
  A 0.45 0.45 0.0 0 1 366.09 115.75
  L 394.41 115.75
  A 0.45 0.45 0.0 0 1 394.86 116.20
  L 394.87 137.55
  A 0.45 0.45 0.0 0 0 395.32 138.00
  L 415.55 137.99
  A 0.45 0.45 0.0 0 0 416.00 137.54
  L 416.00 69.68
  A 0.45 0.45 0.0 0 0 415.87 69.36
  L 404.02 57.50
  A 0.45 0.45 0.0 0 0 403.70 57.37
  L 356.95 57.36
  A 0.45 0.45 0.0 0 0 356.63 57.49
  L 344.63 69.49
  A 0.45 0.45 0.0 0 0 344.50 69.81
  L 344.50 137.55
  A 0.45 0.45 0.0 0 0 344.95 138.00
  L 365.17 138.00
  A 0.45 0.45 0.0 0 0 365.62 137.55
  L 365.64 116.20"
/>
<path stroke="#888888" vector-effect="non-scaling-stroke" d="
  M 202.4837 27.6171
  A 0.27 0.27 0.0 0 0 202.2122 27.3485
  L 193.9924 27.3916
  A 0.27 0.27 0.0 0 0 193.7238 27.6630
  L 193.7563 33.8829
  A 0.27 0.27 0.0 0 0 194.0278 34.1515
  L 202.2476 34.1084
  A 0.27 0.27 0.0 0 0 202.5162 33.8370
  L 202.4837 27.6171"
/>
<path stroke="#888888" vector-effect="non-scaling-stroke" d="
  M 228.75 27.78
  A 0.41 0.41 0.0 0 0 228.34 27.37
  L 220.40 27.37
  A 0.41 0.41 0.0 0 0 219.99 27.78
  L 219.99 40.58
  A 0.41 0.41 0.0 0 0 220.40 40.99
  L 228.34 40.99
  A 0.41 0.41 0.0 0 0 228.75 40.58
  L 228.75 27.78"
/>
<path stroke="#888888" vector-effect="non-scaling-stroke" d="
  M 309.7296 27.7548
  A 0.39 0.39 0.0 0 0 309.3382 27.3661
  L 301.3783 27.3939
  A 0.39 0.39 0.0 0 0 300.9896 27.7853
  L 301.0104 33.7452
  A 0.39 0.39 0.0 0 0 301.4018 34.1339
  L 309.3617 34.1061
  A 0.39 0.39 0.0 0 0 309.7504 33.7147
  L 309.7296 27.7548"
/>
<path stroke="#888888" vector-effect="non-scaling-stroke" d="
  M 348.14 27.80
  A 0.44 0.44 0.0 0 0 347.70 27.36
  L 339.80 27.36
  A 0.44 0.44 0.0 0 0 339.36 27.80
  L 339.36 40.56
  A 0.44 0.44 0.0 0 0 339.80 41.00
  L 347.70 41.00
  A 0.44 0.44 0.0 0 0 348.14 40.56
  L 348.14 27.80"
/>
<path stroke="#888888" vector-effect="non-scaling-stroke" d="
  M 409.6142 27.7271
  A 0.38 0.38 0.0 0 0 409.2322 27.3491
  L 401.2324 27.3910
  A 0.38 0.38 0.0 0 0 400.8544 27.7730
  L 400.8858 33.7729
  A 0.38 0.38 0.0 0 0 401.2678 34.1509
  L 409.2676 34.1090
  A 0.38 0.38 0.0 0 0 409.6456 33.7270
  L 409.6142 27.7271"
/>
<path stroke="#f8ceb8" vector-effect="non-scaling-stroke" d="
  M 59.99 97.32
  C 59.08 100.92 58.41 106.02 55.70 108.69
  Q 51.52 112.79 47.02 117.29
  Q 46.62 117.70 47.19 117.70
  L 98.51 117.72
  A 0.49 0.48 0.0 0 0 99.00 117.24
  L 99.09 28.95
  Q 99.09 28.56 98.70 28.56
  L 31.21 28.48
  Q 30.64 28.48 30.64 29.04
  L 30.79 115.50
  Q 30.79 116.25 31.34 115.74
  Q 38.74 108.82 46.44 100.68
  Q 48.50 98.51 50.71 97.78
  Q 54.74 96.45 58.72 95.89
  A 1.15 1.15 0.0 0 1 59.99 97.32"
/>
<path stroke="#f8ceb8" vector-effect="non-scaling-stroke" d="
  M 53.94 102.31
  L 54.32 104.89
  A 0.43 0.42 58.0 0 0 55.09 105.07
  Q 55.79 104.05 56.01 102.67
  C 56.64 98.69 52.40 99.26 50.55 100.84
  Q 49.72 101.55 50.81 101.63
  L 53.43 101.83
  A 0.57 0.56 -1.2 0 1 53.94 102.31"
/>
<path stroke="#f8ceb8" vector-effect="non-scaling-stroke" d="
  M 47.72 103.23
  A 0.29 0.29 0.0 0 0 47.33 103.26
  L 28.31 122.34
  A 0.66 0.66 0.0 0 0 28.31 123.27
  L 32.39 127.34
  A 0.81 0.81 0.0 0 0 33.54 127.34
  L 52.09 108.79
  Q 52.53 108.35 52.35 107.76
  L 51.56 105.07
  Q 51.27 104.07 50.23 104.07
  Q 48.80 104.07 47.72 103.23"
/>
<path stroke="#f8ceb8" vector-effect="non-scaling-stroke" d="
  M 30.5608 130.3847
  A 0.88 0.88 0.0 0 0 30.5586 129.1402
  L 26.6202 125.2156
  A 0.88 0.88 0.0 0 0 25.3757 125.2178
  L 25.0792 125.5153
  A 0.88 0.88 0.0 0 0 25.0814 126.7598
  L 29.0198 130.6844
  A 0.88 0.88 0.0 0 0 30.2643 130.6822
  L 30.5608 130.3847"
/>
<path stroke="#f8ceb8" vector-effect="non-scaling-stroke" d="
  M 27.08 132.52
  L 23.09 128.53
  A 0.13 0.13 0.0 0 0 22.91 128.53
  L 22.87 128.57
  A 2.78 1.87 45.0 0 0 23.51 131.86
  L 23.75 132.10
  A 2.78 1.87 45.0 0 0 27.04 132.74
  L 27.08 132.70
  A 0.13 0.13 0.0 0 0 27.08 132.52"
/>
<path stroke="#f8ceb8" vector-effect="non-scaling-stroke" d="
  M 53.42 61.39
  A 1.97 1.97 0.0 0 1 54.17 58.65
  Q 55.73 57.81 57.26 56.99
  Q 64.47 53.11 61.15 45.65
  Q 58.65 40.03 52.33 40.77
  Q 46.69 41.43 45.46 47.64
  Q 45.33 48.29 45.97 48.48
  Q 46.50 48.65 47.07 48.30
  A 1.08 1.03 -10.3 0 0 47.53 47.67
  Q 48.69 43.16 52.71 42.80
  C 59.46 42.21 63.40 51.89 56.34 54.98
  C 53.17 56.36 49.34 58.41 51.63 62.63
  Q 52.65 64.50 53.86 66.26
  A 1.93 1.93 0.0 0 1 53.46 68.85
  C 51.36 70.52 48.60 73.08 50.31 76.12
  Q 52.31 79.71 52.59 83.70
  Q 52.67 84.91 53.83 84.72
  A 0.75 0.74 -1.1 0 0 54.45 84.08
  Q 55.04 79.26 52.58 75.68
  A 2.35 2.35 0.0 0 1 52.78 72.76
  Q 53.95 71.46 55.07 70.15
  C 58.00 66.74 55.12 64.25 53.42 61.39"
/>
<path stroke="#f8ceb8" vector-effect="non-scaling-stroke" d="
  M 69.72 67.54
  Q 68.53 68.99 66.89 70.24
  Q 66.06 70.86 66.40 71.84
  Q 66.55 72.26 67.07 72.46
  A 0.80 0.80 0.0 0 0 67.75 72.42
  Q 74.04 69.03 80.42 65.02
  Q 80.52 64.95 80.64 65.00
  Q 80.69 65.01 80.71 65.06
  Q 80.88 65.34 80.65 65.57
  Q 77.06 69.22 73.56 73.62
  A 0.62 0.61 -51.8 0 0 73.66 74.49
  L 73.94 74.71
  Q 74.70 75.32 75.36 74.61
  Q 81.81 67.77 87.20 62.21
  Q 88.59 60.77 89.03 59.02
  A 0.80 0.80 0.0 0 0 87.94 58.08
  Q 83.36 60.03 79.35 62.91
  Q 79.20 63.02 79.09 62.87
  L 79.09 62.86
  Q 78.94 62.68 79.12 62.54
  C 82.43 59.76 86.04 56.97 88.91 53.72
  Q 89.31 53.27 89.06 52.72
  L 88.61 51.73
  Q 88.39 51.23 88.82 50.90
  L 91.36 48.90
  Q 91.69 48.64 91.71 48.22
  Q 91.73 47.64 91.20 47.39
  A 1.18 1.17 -43.8 0 0 90.23 47.37
  Q 88.24 48.23 86.56 49.35
  Q 75.65 56.67 64.78 63.91
  Q 63.67 64.65 64.16 65.79
  Q 64.43 66.43 65.10 66.27
  Q 65.25 66.23 65.39 66.31
  Q 65.92 66.61 65.42 66.95
  Q 64.17 67.78 63.99 68.98
  A 0.99 0.98 76.2 0 0 65.54 69.92
  Q 67.51 68.50 69.49 67.28
  Q 70.36 66.75 69.72 67.54"
/>
<path stroke="#f8ceb8" vector-effect="non-scaling-stroke" d="
  M 43.36 66.60
  Q 44.51 67.74 43.12 68.57
  Q 39.16 70.95 41.76 73.14
  Q 42.62 73.87 43.45 74.61
  Q 44.16 75.25 43.49 75.93
  C 39.55 79.94 44.93 79.97 43.83 82.96
  Q 43.22 84.62 43.23 86.29
  A 1.00 0.98 18.9 0 0 43.63 87.08
  Q 43.97 87.34 44.36 87.17
  Q 44.75 87.01 44.91 86.60
  Q 45.92 84.03 46.44 81.49
  A 1.33 1.30 -55.9 0 0 46.26 80.51
  Q 45.69 79.60 44.79 79.01
  A 0.59 0.58 -55.8 0 1 44.64 78.18
  L 46.54 75.48
  Q 47.01 74.81 46.39 74.27
  L 43.56 71.83
  A 0.59 0.59 0.0 0 1 43.59 70.92
  Q 45.23 69.66 46.33 68.06
  Q 46.68 67.55 46.32 67.05
  Q 44.63 64.65 42.72 62.30
  Q 42.11 61.55 41.24 61.77
  A 0.80 0.80 0.0 0 0 40.72 62.91
  Q 41.81 65.09 43.36 66.60"
/>
<path stroke="#f8ceb8" vector-effect="non-scaling-stroke" d="
  M 83.95 104.45
  Q 86.30 109.38 92.26 108.98
  Q 95.92 108.74 92.89 106.68
  Q 90.84 105.29 90.70 102.35
  Q 90.45 97.02 90.43 91.67
  C 90.40 86.41 88.19 80.46 81.67 81.38
  Q 80.41 81.56 79.12 81.35
  C 73.38 80.44 68.67 83.16 67.56 89.04
  C 66.96 92.19 69.11 95.46 72.51 94.02
  C 75.59 92.71 74.43 88.62 73.79 86.15
  A 1.96 1.96 0.0 0 1 75.48 83.72
  C 77.81 83.48 82.29 83.84 81.73 87.25
  C 80.96 91.94 78.22 94.75 73.77 95.50
  C 71.56 95.87 69.45 95.62 67.61 97.08
  C 63.24 100.54 64.37 107.43 70.00 108.65
  C 74.77 109.68 81.07 109.37 83.43 104.45
  A 0.29 0.29 0.0 0 1 83.95 104.45"
/>
<path stroke="#888888" vector-effect="non-scaling-stroke" d="
  M 307.12 75.65
  A 0.40 0.40 0.0 0 0 306.72 75.25
  L 278.28 75.25
  A 0.40 0.40 0.0 0 0 277.88 75.65
  L 277.88 120.23
  A 0.40 0.40 0.0 0 0 278.28 120.63
  L 306.72 120.63
  A 0.40 0.40 0.0 0 0 307.12 120.23
  L 307.12 75.65"
/>
<path stroke="#888888" vector-effect="non-scaling-stroke" d="
  M 394.87 75.61
  A 0.36 0.36 0.0 0 0 394.51 75.25
  L 365.99 75.25
  A 0.36 0.36 0.0 0 0 365.63 75.61
  L 365.63 97.63
  A 0.36 0.36 0.0 0 0 365.99 97.99
  L 394.51 97.99
  A 0.36 0.36 0.0 0 0 394.87 97.63
  L 394.87 75.61"
/>
<path stroke="#f8ceb8" vector-effect="non-scaling-stroke" d="
  M 83.77 84.66
  C 86.59 89.69 85.56 95.45 85.80 100.98
  Q 85.91 103.59 87.70 105.36
  Q 89.31 106.95 88.73 104.77
  C 87.12 98.69 89.55 90.54 86.16 85.29
  Q 85.66 84.53 84.80 84.24
  L 84.26 84.06
  Q 83.25 83.73 83.77 84.66"
/>
<path stroke="#f8ceb8" vector-effect="non-scaling-stroke" d="
  M 70.79 86.77
  Q 69.56 88.86 70.07 91.22
  Q 70.29 92.26 71.37 92.03
  A 0.83 0.82 -5.8 0 0 72.02 91.24
  Q 72.05 88.99 71.65 86.92
  Q 71.41 85.71 70.79 86.77"
/>
<path stroke="#f8ceb8" vector-effect="non-scaling-stroke" d="
  M 82.57 92.59
  C 80.37 95.64 77.35 97.12 73.70 98.22
  Q 73.12 98.39 73.02 98.98
  C 72.57 101.46 72.16 106.91 76.12 106.64
  C 82.82 106.20 83.45 98.07 83.06 92.73
  Q 83.01 91.99 82.57 92.59"
/>
<path stroke="#f8ceb8" vector-effect="non-scaling-stroke" d="
  M 70.96 105.55
  Q 69.76 102.27 70.66 98.99
  A 0.46 0.46 0.0 0 0 69.99 98.47
  Q 66.35 100.58 67.79 104.10
  A 3.50 3.50 0.0 0 0 68.85 105.54
  Q 69.49 106.06 70.30 106.28
  Q 71.32 106.55 70.96 105.55"
/>
</g>
<path fill="#ffffff" d="
  M 0.00 0.00
  L 444.00 0.00
  L 444.00 167.00
  L 0.00 167.00
  L 0.00 0.00
  Z
  M 129.13 40.57
  L 129.13 22.34
  Q 129.13 22.00 128.80 22.00
  L 123.25 22.00
  A 0.50 0.50 0.0 0 0 122.75 22.50
  L 122.75 40.98
  A 5.40 5.40 0.0 0 0 128.15 46.38
  L 138.51 46.38
  A 5.64 5.63 -0.1 0 0 144.14 40.75
  L 144.14 22.34
  A 0.33 0.33 0.0 0 0 143.82 22.01
  L 138.31 21.99
  Q 137.86 21.99 137.86 22.44
  L 137.86 40.65
  Q 137.86 41.00 137.51 41.00
  L 129.57 41.00
  Q 129.13 41.00 129.13 40.57
  Z
  M 163.75 35.05
  L 155.07 22.63
  A 1.44 1.41 72.2 0 0 153.90 22.01
  L 149.51 21.99
  Q 149.00 21.99 149.00 22.49
  L 149.00 45.96
  Q 149.00 46.41 149.46 46.41
  L 154.93 46.38
  A 0.46 0.46 0.0 0 0 155.39 45.92
  L 155.35 33.75
  Q 155.35 32.69 155.96 33.56
  L 164.60 45.95
  A 0.93 0.91 72.6 0 0 165.33 46.34
  L 169.73 46.43
  A 0.64 0.63 -88.7 0 0 170.38 45.80
  L 170.38 22.32
  Q 170.38 22.00 170.06 22.00
  L 164.50 22.00
  Q 164.12 22.00 164.12 22.38
  L 164.12 34.93
  Q 164.12 35.56 163.75 35.05
  Z
  M 194.38 39.50
  L 203.32 39.50
  A 5.56 5.55 -0.1 0 0 208.88 33.93
  L 208.87 27.68
  A 5.69 5.69 0.0 0 0 203.18 22.00
  L 188.12 22.00
  Q 187.50 22.00 187.50 22.63
  L 187.50 46.22
  Q 187.50 46.44 187.72 46.43
  L 193.46 46.33
  Q 193.75 46.33 193.75 46.04
  L 193.75 40.12
  Q 193.75 39.50 194.38 39.50
  Z
  M 235.1173 27.6727
  A 5.73 5.73 0.0 0 0 229.3673 21.9627
  L 219.4074 21.9975
  A 5.73 5.73 0.0 0 0 213.6974 27.7474
  L 213.7427 40.7073
  A 5.73 5.73 0.0 0 0 219.4927 46.4173
  L 229.4526 46.3825
  A 5.73 5.73 0.0 0 0 235.1626 40.6326
  L 235.1173 27.6727
  Z
  M 246.25 27.95
  Q 246.25 27.40 246.80 27.40
  L 260.25 27.37
  Q 260.63 27.37 260.63 26.99
  L 260.62 22.43
  Q 260.62 22.00 260.18 22.00
  L 240.50 22.01
  A 0.50 0.49 0.0 0 0 240.00 22.50
  L 240.00 40.75
  A 5.50 5.50 0.0 0 0 245.50 46.25
  L 260.18 46.25
  Q 260.60 46.25 260.61 45.82
  L 260.65 41.45
  Q 260.65 41.00 260.20 41.00
  L 246.74 41.00
  Q 246.24 41.00 246.24 40.49
  L 246.26 37.30
  Q 246.27 36.86 246.70 36.86
  L 258.27 36.88
  Q 258.67 36.88 258.67 36.48
  L 258.59 32.04
  Q 258.58 31.50 258.04 31.50
  L 246.75 31.50
  A 0.50 0.50 0.0 0 1 246.25 31.00
  L 246.25 27.95
  Z
  M 283.50 33.80
  L 283.50 45.96
  Q 283.50 46.41 283.95 46.41
  L 289.37 46.39
  A 0.39 0.39 0.0 0 0 289.75 46.00
  L 289.75 22.50
  Q 289.75 22.00 289.25 22.00
  L 284.06 22.00
  A 1.04 1.03 -76.0 0 0 283.17 22.54
  L 277.95 32.52
  A 0.34 0.34 0.0 0 1 277.35 32.52
  L 272.23 22.68
  Q 271.88 22.00 271.11 22.00
  L 266.00 22.00
  Q 265.50 22.00 265.50 22.50
  L 265.50 46.09
  Q 265.50 46.42 265.84 46.42
  L 271.53 46.33
  Q 271.87 46.32 271.87 45.98
  L 271.86 34.22
  Q 271.86 32.63 272.56 34.05
  Q 273.86 36.68 275.19 39.51
  Q 276.01 41.25 277.97 41.09
  Q 279.34 40.98 279.91 39.76
  Q 281.35 36.64 283.07 33.68
  Q 283.50 32.93 283.50 33.80
  Z
  M 308.52 39.50
  Q 310.08 39.50 309.87 41.05
  Q 309.64 42.74 309.70 45.65
  Q 309.71 46.37 310.44 46.38
  L 315.46 46.43
  A 0.67 0.66 0.0 0 0 316.13 45.77
  Q 316.17 36.25 316.16 28.43
  Q 316.15 22.00 309.24 21.97
  Q 303.98 21.95 299.91 22.06
  A 5.45 5.45 0.0 0 0 294.60 27.51
  L 294.61 45.74
  Q 294.61 46.38 295.24 46.38
  L 300.55 46.40
  Q 301.00 46.40 301.00 45.95
  L 301.00 40.50
  Q 301.00 39.50 302.00 39.50
  L 308.52 39.50
  Z
  M 354.5424 27.7874
  A 5.76 5.76 0.0 0 0 348.8026 22.0073
  L 338.9427 21.9729
  A 5.76 5.76 0.0 0 0 333.1626 27.7127
  L 333.1176 40.6126
  A 5.76 5.76 0.0 0 0 338.8574 46.3927
  L 348.7173 46.4271
  A 5.76 5.76 0.0 0 0 354.4974 40.6873
  L 354.5424 27.7874
  Z
  M 391.00 41.41
  A 0.41 0.41 0.0 0 0 390.59 41.00
  L 378.26 41.00
  A 0.41 0.41 0.0 0 1 377.85 40.59
  L 377.87 22.41
  A 0.41 0.41 0.0 0 0 377.46 22.00
  L 371.90 22.00
  A 0.41 0.41 0.0 0 0 371.49 22.41
  L 371.50 42.45
  A 0.41 0.41 0.0 0 0 371.62 42.74
  L 375.11 46.27
  A 0.41 0.41 0.0 0 0 375.40 46.39
  L 390.59 46.42
  A 0.41 0.41 0.0 0 0 391.00 46.01
  L 391.00 41.41
  Z
  M 402.06 39.50
  L 408.44 39.50
  Q 409.62 39.50 409.62 40.69
  L 409.60 45.37
  Q 409.60 46.38 410.62 46.39
  L 415.06 46.40
  Q 416.03 46.40 416.03 45.43
  Q 415.96 36.78 416.01 27.78
  C 416.04 23.69 412.87 22.00 409.13 21.96
  Q 404.45 21.91 399.94 22.04
  A 5.47 5.47 0.0 0 0 394.61 27.51
  L 394.62 45.75
  A 0.64 0.64 0.0 0 0 395.26 46.39
  L 400.27 46.36
  Q 400.90 46.35 400.90 45.73
  L 400.87 40.69
  Q 400.87 39.50 402.06 39.50
  Z
  M 27.64 119.50
  Q 25.34 121.82 22.48 124.62
  C 15.68 131.29 24.57 139.93 31.16 133.25
  Q 37.07 127.26 43.02 121.18
  A 3.87 3.84 22.1 0 1 45.77 120.03
  L 100.25 120.00
  A 1.02 1.02 0.0 0 0 101.27 119.04
  Q 101.41 117.01 101.41 114.75
  Q 101.44 74.69 101.32 27.24
  A 0.75 0.75 0.0 0 0 100.57 26.49
  L 29.24 26.57
  A 0.69 0.69 0.0 0 0 28.55 27.26
  L 28.25 118.03
  Q 28.25 118.89 27.64 119.50
  Z
  M 160.57 109.13
  L 142.50 57.93
  Q 142.31 57.38 141.73 57.38
  L 123.30 57.36
  Q 122.70 57.36 122.71 57.97
  C 122.83 61.62 122.19 65.64 123.51 69.07
  Q 136.19 102.15 149.62 137.39
  A 0.94 0.94 0.0 0 0 150.50 138.00
  L 171.48 138.00
  A 1.10 1.10 0.0 0 0 172.51 137.29
  Q 184.87 104.45 198.20 69.62
  C 199.68 65.76 199.02 61.93 199.17 58.03
  Q 199.20 57.36 198.52 57.36
  L 180.26 57.37
  A 0.91 0.90 9.4 0 0 179.40 57.98
  L 161.30 109.13
  Q 160.94 110.16 160.57 109.13
  Z
  M 215.37 121.84
  A 0.41 0.41 0.0 0 1 214.96 122.25
  L 209.29 122.25
  A 0.41 0.41 0.0 0 0 208.88 122.66
  L 208.85 137.59
  A 0.41 0.41 0.0 0 0 209.26 138.00
  L 242.59 138.00
  A 0.41 0.41 0.0 0 0 243.00 137.59
  L 243.00 122.65
  A 0.41 0.41 0.0 0 0 242.59 122.24
  L 236.91 122.25
  A 0.41 0.41 0.0 0 1 236.50 121.84
  L 236.50 74.05
  A 0.41 0.41 0.0 0 1 236.91 73.64
  L 242.59 73.65
  A 0.41 0.41 0.0 0 0 243.00 73.24
  L 243.00 57.77
  A 0.41 0.41 0.0 0 0 242.59 57.36
  L 209.28 57.37
  A 0.41 0.41 0.0 0 0 208.87 57.78
  L 208.86 73.26
  A 0.41 0.41 0.0 0 0 209.27 73.67
  L 214.95 73.61
  A 0.41 0.41 0.0 0 1 215.36 74.02
  L 215.37 121.84
  Z
  M 257.13 57.37
  A 0.38 0.37 0.0 0 0 256.75 57.74
  L 256.75 137.46
  Q 256.75 138.01 257.30 138.01
  Q 286.28 138.01 313.57 137.98
  C 315.25 137.98 316.55 138.29 317.85 136.96
  Q 322.38 132.32 327.47 127.35
  A 2.61 2.58 68.2 0 0 328.25 125.49
  L 328.25 69.99
  A 1.52 1.51 -67.4 0 0 327.82 68.93
  L 316.78 57.83
  Q 316.31 57.37 315.65 57.37
  L 257.13 57.37
  Z
  M 365.64 116.20
  A 0.45 0.45 0.0 0 1 366.09 115.75
  L 394.41 115.75
  A 0.45 0.45 0.0 0 1 394.86 116.20
  L 394.87 137.55
  A 0.45 0.45 0.0 0 0 395.32 138.00
  L 415.55 137.99
  A 0.45 0.45 0.0 0 0 416.00 137.54
  L 416.00 69.68
  A 0.45 0.45 0.0 0 0 415.87 69.36
  L 404.02 57.50
  A 0.45 0.45 0.0 0 0 403.70 57.37
  L 356.95 57.36
  A 0.45 0.45 0.0 0 0 356.63 57.49
  L 344.63 69.49
  A 0.45 0.45 0.0 0 0 344.50 69.81
  L 344.50 137.55
  A 0.45 0.45 0.0 0 0 344.95 138.00
  L 365.17 138.00
  A 0.45 0.45 0.0 0 0 365.62 137.55
  L 365.64 116.20
  Z"
/>
<path fill="#111111" d="
  M 129.13 40.57
  Q 129.13 41.00 129.57 41.00
  L 137.51 41.00
  Q 137.86 41.00 137.86 40.65
  L 137.86 22.44
  Q 137.86 21.99 138.31 21.99
  L 143.82 22.01
  A 0.33 0.33 0.0 0 1 144.14 22.34
  L 144.14 40.75
  A 5.64 5.63 -0.1 0 1 138.51 46.38
  L 128.15 46.38
  A 5.40 5.40 0.0 0 1 122.75 40.98
  L 122.75 22.50
  A 0.50 0.50 0.0 0 1 123.25 22.00
  L 128.80 22.00
  Q 129.13 22.00 129.13 22.34
  L 129.13 40.57
  Z"
/>
<path fill="#111111" d="
  M 164.12 34.93
  L 164.12 22.38
  Q 164.12 22.00 164.50 22.00
  L 170.06 22.00
  Q 170.38 22.00 170.38 22.32
  L 170.38 45.80
  A 0.64 0.63 -88.7 0 1 169.73 46.43
  L 165.33 46.34
  A 0.93 0.91 72.6 0 1 164.60 45.95
  L 155.96 33.56
  Q 155.35 32.69 155.35 33.75
  L 155.39 45.92
  A 0.46 0.46 0.0 0 1 154.93 46.38
  L 149.46 46.41
  Q 149.00 46.41 149.00 45.96
  L 149.00 22.49
  Q 149.00 21.99 149.51 21.99
  L 153.90 22.01
  A 1.44 1.41 72.2 0 1 155.07 22.63
  L 163.75 35.05
  Q 164.12 35.56 164.12 34.93
  Z"
/>
<path fill="#111111" d="
  M 193.75 40.12
  L 193.75 46.04
  Q 193.75 46.33 193.46 46.33
  L 187.72 46.43
  Q 187.50 46.44 187.50 46.22
  L 187.50 22.63
  Q 187.50 22.00 188.12 22.00
  L 203.18 22.00
  A 5.69 5.69 0.0 0 1 208.87 27.68
  L 208.88 33.93
  A 5.56 5.55 -0.1 0 1 203.32 39.50
  L 194.38 39.50
  Q 193.75 39.50 193.75 40.12
  Z
  M 202.4837 27.6171
  A 0.27 0.27 0.0 0 0 202.2122 27.3485
  L 193.9924 27.3916
  A 0.27 0.27 0.0 0 0 193.7238 27.6630
  L 193.7563 33.8829
  A 0.27 0.27 0.0 0 0 194.0278 34.1515
  L 202.2476 34.1084
  A 0.27 0.27 0.0 0 0 202.5162 33.8370
  L 202.4837 27.6171
  Z"
/>
<path fill="#111111" d="
  M 235.1626 40.6326
  A 5.73 5.73 0.0 0 1 229.4526 46.3825
  L 219.4927 46.4173
  A 5.73 5.73 0.0 0 1 213.7427 40.7073
  L 213.6974 27.7474
  A 5.73 5.73 0.0 0 1 219.4074 21.9975
  L 229.3673 21.9627
  A 5.73 5.73 0.0 0 1 235.1173 27.6727
  L 235.1626 40.6326
  Z
  M 228.75 27.78
  A 0.41 0.41 0.0 0 0 228.34 27.37
  L 220.40 27.37
  A 0.41 0.41 0.0 0 0 219.99 27.78
  L 219.99 40.58
  A 0.41 0.41 0.0 0 0 220.40 40.99
  L 228.34 40.99
  A 0.41 0.41 0.0 0 0 228.75 40.58
  L 228.75 27.78
  Z"
/>
<path fill="#111111" d="
  M 246.75 31.50
  L 258.04 31.50
  Q 258.58 31.50 258.59 32.04
  L 258.67 36.48
  Q 258.67 36.88 258.27 36.88
  L 246.70 36.86
  Q 246.27 36.86 246.26 37.30
  L 246.24 40.49
  Q 246.24 41.00 246.74 41.00
  L 260.20 41.00
  Q 260.65 41.00 260.65 41.45
  L 260.61 45.82
  Q 260.60 46.25 260.18 46.25
  L 245.50 46.25
  A 5.50 5.50 0.0 0 1 240.00 40.75
  L 240.00 22.50
  A 0.50 0.49 -0.0 0 1 240.50 22.01
  L 260.18 22.00
  Q 260.62 22.00 260.62 22.43
  L 260.63 26.99
  Q 260.63 27.37 260.25 27.37
  L 246.80 27.40
  Q 246.25 27.40 246.25 27.95
  L 246.25 31.00
  A 0.50 0.50 0.0 0 0 246.75 31.50
  Z"
/>
<path fill="#111111" d="
  M 283.07 33.68
  Q 281.35 36.64 279.91 39.76
  Q 279.34 40.98 277.97 41.09
  Q 276.01 41.25 275.19 39.51
  Q 273.86 36.68 272.56 34.05
  Q 271.86 32.63 271.86 34.22
  L 271.87 45.98
  Q 271.87 46.32 271.53 46.33
  L 265.84 46.42
  Q 265.50 46.42 265.50 46.09
  L 265.50 22.50
  Q 265.50 22.00 266.00 22.00
  L 271.11 22.00
  Q 271.88 22.00 272.23 22.68
  L 277.35 32.52
  A 0.34 0.34 0.0 0 0 277.95 32.52
  L 283.17 22.54
  A 1.04 1.03 -76.0 0 1 284.06 22.00
  L 289.25 22.00
  Q 289.75 22.00 289.75 22.50
  L 289.75 46.00
  A 0.39 0.39 0.0 0 1 289.37 46.39
  L 283.95 46.41
  Q 283.50 46.41 283.50 45.96
  L 283.50 33.80
  Q 283.50 32.93 283.07 33.68
  Z"
/>
<path fill="#111111" d="
  M 301.00 40.50
  L 301.00 45.95
  Q 301.00 46.40 300.55 46.40
  L 295.24 46.38
  Q 294.61 46.38 294.61 45.74
  L 294.60 27.51
  A 5.45 5.45 0.0 0 1 299.91 22.06
  Q 303.98 21.95 309.24 21.97
  Q 316.15 22.00 316.16 28.43
  Q 316.17 36.25 316.13 45.77
  A 0.67 0.66 0.0 0 1 315.46 46.43
  L 310.44 46.38
  Q 309.71 46.37 309.70 45.65
  Q 309.64 42.74 309.87 41.05
  Q 310.08 39.50 308.52 39.50
  L 302.00 39.50
  Q 301.00 39.50 301.00 40.50
  Z
  M 309.7296 27.7548
  A 0.39 0.39 0.0 0 0 309.3382 27.3661
  L 301.3783 27.3939
  A 0.39 0.39 0.0 0 0 300.9896 27.7853
  L 301.0104 33.7452
  A 0.39 0.39 0.0 0 0 301.4018 34.1339
  L 309.3617 34.1061
  A 0.39 0.39 0.0 0 0 309.7504 33.7147
  L 309.7296 27.7548
  Z"
/>
<path fill="#111111" d="
  M 354.4974 40.6873
  A 5.76 5.76 0.0 0 1 348.7173 46.4271
  L 338.8574 46.3927
  A 5.76 5.76 0.0 0 1 333.1176 40.6126
  L 333.1626 27.7127
  A 5.76 5.76 0.0 0 1 338.9427 21.9729
  L 348.8026 22.0073
  A 5.76 5.76 0.0 0 1 354.5424 27.7874
  L 354.4974 40.6873
  Z
  M 348.14 27.80
  A 0.44 0.44 0.0 0 0 347.70 27.36
  L 339.80 27.36
  A 0.44 0.44 0.0 0 0 339.36 27.80
  L 339.36 40.56
  A 0.44 0.44 0.0 0 0 339.80 41.00
  L 347.70 41.00
  A 0.44 0.44 0.0 0 0 348.14 40.56
  L 348.14 27.80
  Z"
/>
<path fill="#111111" d="
  M 391.00 41.41
  L 391.00 46.01
  A 0.41 0.41 0.0 0 1 390.59 46.42
  L 375.40 46.39
  A 0.41 0.41 0.0 0 1 375.11 46.27
  L 371.62 42.74
  A 0.41 0.41 0.0 0 1 371.50 42.45
  L 371.49 22.41
  A 0.41 0.41 0.0 0 1 371.90 22.00
  L 377.46 22.00
  A 0.41 0.41 0.0 0 1 377.87 22.41
  L 377.85 40.59
  A 0.41 0.41 0.0 0 0 378.26 41.00
  L 390.59 41.00
  A 0.41 0.41 0.0 0 1 391.00 41.41
  Z"
/>
<path fill="#111111" d="
  M 400.87 40.69
  L 400.90 45.73
  Q 400.90 46.35 400.27 46.36
  L 395.26 46.39
  A 0.64 0.64 0.0 0 1 394.62 45.75
  L 394.61 27.51
  A 5.47 5.47 0.0 0 1 399.94 22.04
  Q 404.45 21.91 409.13 21.96
  C 412.87 22.00 416.04 23.69 416.01 27.78
  Q 415.96 36.78 416.03 45.43
  Q 416.03 46.40 415.06 46.40
  L 410.62 46.39
  Q 409.60 46.38 409.60 45.37
  L 409.62 40.69
  Q 409.62 39.50 408.44 39.50
  L 402.06 39.50
  Q 400.87 39.50 400.87 40.69
  Z
  M 409.6142 27.7271
  A 0.38 0.38 0.0 0 0 409.2322 27.3491
  L 401.2324 27.3910
  A 0.38 0.38 0.0 0 0 400.8544 27.7730
  L 400.8858 33.7729
  A 0.38 0.38 0.0 0 0 401.2678 34.1509
  L 409.2676 34.1090
  A 0.38 0.38 0.0 0 0 409.6456 33.7270
  L 409.6142 27.7271
  Z"
/>
<path fill="#f19d71" d="
  M 28.25 118.03
  L 28.55 27.26
  A 0.69 0.69 0.0 0 1 29.24 26.57
  L 100.57 26.49
  A 0.75 0.75 0.0 0 1 101.32 27.24
  Q 101.44 74.69 101.41 114.75
  Q 101.41 117.01 101.27 119.04
  A 1.02 1.02 0.0 0 1 100.25 120.00
  L 45.77 120.03
  A 3.87 3.84 22.1 0 0 43.02 121.18
  Q 37.07 127.26 31.16 133.25
  C 24.57 139.93 15.68 131.29 22.48 124.62
  Q 25.34 121.82 27.64 119.50
  Q 28.25 118.89 28.25 118.03
  Z
  M 59.99 97.32
  C 59.08 100.92 58.41 106.02 55.70 108.69
  Q 51.52 112.79 47.02 117.29
  Q 46.62 117.70 47.19 117.70
  L 98.51 117.72
  A 0.49 0.48 0.0 0 0 99.00 117.24
  L 99.09 28.95
  Q 99.09 28.56 98.70 28.56
  L 31.21 28.48
  Q 30.64 28.48 30.64 29.04
  L 30.79 115.50
  Q 30.79 116.25 31.34 115.74
  Q 38.74 108.82 46.44 100.68
  Q 48.50 98.51 50.71 97.78
  Q 54.74 96.45 58.72 95.89
  A 1.15 1.15 0.0 0 1 59.99 97.32
  Z
  M 53.94 102.31
  L 54.32 104.89
  A 0.43 0.42 58.0 0 0 55.09 105.07
  Q 55.79 104.05 56.01 102.67
  C 56.64 98.69 52.40 99.26 50.55 100.84
  Q 49.72 101.55 50.81 101.63
  L 53.43 101.83
  A 0.57 0.56 -1.2 0 1 53.94 102.31
  Z
  M 47.72 103.23
  A 0.29 0.29 0.0 0 0 47.33 103.26
  L 28.31 122.34
  A 0.66 0.66 0.0 0 0 28.31 123.27
  L 32.39 127.34
  A 0.81 0.81 0.0 0 0 33.54 127.34
  L 52.09 108.79
  Q 52.53 108.35 52.35 107.76
  L 51.56 105.07
  Q 51.27 104.07 50.23 104.07
  Q 48.80 104.07 47.72 103.23
  Z
  M 30.5608 130.3847
  A 0.88 0.88 0.0 0 0 30.5586 129.1402
  L 26.6202 125.2156
  A 0.88 0.88 0.0 0 0 25.3757 125.2178
  L 25.0792 125.5153
  A 0.88 0.88 0.0 0 0 25.0814 126.7598
  L 29.0198 130.6844
  A 0.88 0.88 0.0 0 0 30.2643 130.6822
  L 30.5608 130.3847
  Z
  M 27.08 132.52
  L 23.09 128.53
  A 0.13 0.13 0.0 0 0 22.91 128.53
  L 22.87 128.57
  A 2.78 1.87 45.0 0 0 23.51 131.86
  L 23.75 132.10
  A 2.78 1.87 45.0 0 0 27.04 132.74
  L 27.08 132.70
  A 0.13 0.13 0.0 0 0 27.08 132.52
  Z"
/>
<rect fill="#ffffff" x="-4.38" y="-3.38" transform="translate(198.12,30.75) rotate(-0.3)" width="8.76" height="6.76" rx="0.27"/>
<rect fill="#ffffff" x="219.99" y="27.37" width="8.76" height="13.62" rx="0.41"/>
<rect fill="#ffffff" x="-4.37" y="-3.37" transform="translate(305.37,30.75) rotate(-0.2)" width="8.74" height="6.74" rx="0.39"/>
<rect fill="#ffffff" x="339.36" y="27.36" width="8.78" height="13.64" rx="0.44"/>
<rect fill="#ffffff" x="-4.38" y="-3.38" transform="translate(405.25,30.75) rotate(-0.3)" width="8.76" height="6.76" rx="0.38"/>
<path fill="#ffffff" d="
  M 59.99 97.32
  A 1.15 1.15 0.0 0 0 58.72 95.89
  Q 54.74 96.45 50.71 97.78
  Q 48.50 98.51 46.44 100.68
  Q 38.74 108.82 31.34 115.74
  Q 30.79 116.25 30.79 115.50
  L 30.64 29.04
  Q 30.64 28.48 31.21 28.48
  L 98.70 28.56
  Q 99.09 28.56 99.09 28.95
  L 99.00 117.24
  A 0.49 0.48 0.0 0 1 98.51 117.72
  L 47.19 117.70
  Q 46.62 117.70 47.02 117.29
  Q 51.52 112.79 55.70 108.69
  C 58.41 106.02 59.08 100.92 59.99 97.32
  Z
  M 53.42 61.39
  A 1.97 1.97 0.0 0 1 54.17 58.65
  Q 55.73 57.81 57.26 56.99
  Q 64.47 53.11 61.15 45.65
  Q 58.65 40.03 52.33 40.77
  Q 46.69 41.43 45.46 47.64
  Q 45.33 48.29 45.97 48.48
  Q 46.50 48.65 47.07 48.30
  A 1.08 1.03 -10.3 0 0 47.53 47.67
  Q 48.69 43.16 52.71 42.80
  C 59.46 42.21 63.40 51.89 56.34 54.98
  C 53.17 56.36 49.34 58.41 51.63 62.63
  Q 52.65 64.50 53.86 66.26
  A 1.93 1.93 0.0 0 1 53.46 68.85
  C 51.36 70.52 48.60 73.08 50.31 76.12
  Q 52.31 79.71 52.59 83.70
  Q 52.67 84.91 53.83 84.72
  A 0.75 0.74 -1.1 0 0 54.45 84.08
  Q 55.04 79.26 52.58 75.68
  A 2.35 2.35 0.0 0 1 52.78 72.76
  Q 53.95 71.46 55.07 70.15
  C 58.00 66.74 55.12 64.25 53.42 61.39
  Z
  M 69.72 67.54
  Q 68.53 68.99 66.89 70.24
  Q 66.06 70.86 66.40 71.84
  Q 66.55 72.26 67.07 72.46
  A 0.80 0.80 0.0 0 0 67.75 72.42
  Q 74.04 69.03 80.42 65.02
  Q 80.52 64.95 80.64 65.00
  Q 80.69 65.01 80.71 65.06
  Q 80.88 65.34 80.65 65.57
  Q 77.06 69.22 73.56 73.62
  A 0.62 0.61 -51.8 0 0 73.66 74.49
  L 73.94 74.71
  Q 74.70 75.32 75.36 74.61
  Q 81.81 67.77 87.20 62.21
  Q 88.59 60.77 89.03 59.02
  A 0.80 0.80 0.0 0 0 87.94 58.08
  Q 83.36 60.03 79.35 62.91
  Q 79.20 63.02 79.09 62.87
  L 79.09 62.86
  Q 78.94 62.68 79.12 62.54
  C 82.43 59.76 86.04 56.97 88.91 53.72
  Q 89.31 53.27 89.06 52.72
  L 88.61 51.73
  Q 88.39 51.23 88.82 50.90
  L 91.36 48.90
  Q 91.69 48.64 91.71 48.22
  Q 91.73 47.64 91.20 47.39
  A 1.18 1.17 -43.8 0 0 90.23 47.37
  Q 88.24 48.23 86.56 49.35
  Q 75.65 56.67 64.78 63.91
  Q 63.67 64.65 64.16 65.79
  Q 64.43 66.43 65.10 66.27
  Q 65.25 66.23 65.39 66.31
  Q 65.92 66.61 65.42 66.95
  Q 64.17 67.78 63.99 68.98
  A 0.99 0.98 76.2 0 0 65.54 69.92
  Q 67.51 68.50 69.49 67.28
  Q 70.36 66.75 69.72 67.54
  Z
  M 43.36 66.60
  Q 44.51 67.74 43.12 68.57
  Q 39.16 70.95 41.76 73.14
  Q 42.62 73.87 43.45 74.61
  Q 44.16 75.25 43.49 75.93
  C 39.55 79.94 44.93 79.97 43.83 82.96
  Q 43.22 84.62 43.23 86.29
  A 1.00 0.98 18.9 0 0 43.63 87.08
  Q 43.97 87.34 44.36 87.17
  Q 44.75 87.01 44.91 86.60
  Q 45.92 84.03 46.44 81.49
  A 1.33 1.30 -55.9 0 0 46.26 80.51
  Q 45.69 79.60 44.79 79.01
  A 0.59 0.58 -55.8 0 1 44.64 78.18
  L 46.54 75.48
  Q 47.01 74.81 46.39 74.27
  L 43.56 71.83
  A 0.59 0.59 0.0 0 1 43.59 70.92
  Q 45.23 69.66 46.33 68.06
  Q 46.68 67.55 46.32 67.05
  Q 44.63 64.65 42.72 62.30
  Q 42.11 61.55 41.24 61.77
  A 0.80 0.80 0.0 0 0 40.72 62.91
  Q 41.81 65.09 43.36 66.60
  Z
  M 83.95 104.45
  Q 86.30 109.38 92.26 108.98
  Q 95.92 108.74 92.89 106.68
  Q 90.84 105.29 90.70 102.35
  Q 90.45 97.02 90.43 91.67
  C 90.40 86.41 88.19 80.46 81.67 81.38
  Q 80.41 81.56 79.12 81.35
  C 73.38 80.44 68.67 83.16 67.56 89.04
  C 66.96 92.19 69.11 95.46 72.51 94.02
  C 75.59 92.71 74.43 88.62 73.79 86.15
  A 1.96 1.96 0.0 0 1 75.48 83.72
  C 77.81 83.48 82.29 83.84 81.73 87.25
  C 80.96 91.94 78.22 94.75 73.77 95.50
  C 71.56 95.87 69.45 95.62 67.61 97.08
  C 63.24 100.54 64.37 107.43 70.00 108.65
  C 74.77 109.68 81.07 109.37 83.43 104.45
  A 0.29 0.29 0.0 0 1 83.95 104.45
  Z"
/>
<path fill="#f19d71" d="
  M 53.42 61.39
  C 55.12 64.25 58.00 66.74 55.07 70.15
  Q 53.95 71.46 52.78 72.76
  A 2.35 2.35 0.0 0 0 52.58 75.68
  Q 55.04 79.26 54.45 84.08
  A 0.75 0.74 -1.1 0 1 53.83 84.72
  Q 52.67 84.91 52.59 83.70
  Q 52.31 79.71 50.31 76.12
  C 48.60 73.08 51.36 70.52 53.46 68.85
  A 1.93 1.93 0.0 0 0 53.86 66.26
  Q 52.65 64.50 51.63 62.63
  C 49.34 58.41 53.17 56.36 56.34 54.98
  C 63.40 51.89 59.46 42.21 52.71 42.80
  Q 48.69 43.16 47.53 47.67
  A 1.08 1.03 -10.3 0 1 47.07 48.30
  Q 46.50 48.65 45.97 48.48
  Q 45.33 48.29 45.46 47.64
  Q 46.69 41.43 52.33 40.77
  Q 58.65 40.03 61.15 45.65
  Q 64.47 53.11 57.26 56.99
  Q 55.73 57.81 54.17 58.65
  A 1.97 1.97 0.0 0 0 53.42 61.39
  Z"
/>
<path fill="#f19d71" d="
  M 69.49 67.28
  Q 67.51 68.50 65.54 69.92
  A 0.99 0.98 76.2 0 1 63.99 68.98
  Q 64.17 67.78 65.42 66.95
  Q 65.92 66.61 65.39 66.31
  Q 65.25 66.23 65.10 66.27
  Q 64.43 66.43 64.16 65.79
  Q 63.67 64.65 64.78 63.91
  Q 75.65 56.67 86.56 49.35
  Q 88.24 48.23 90.23 47.37
  A 1.18 1.17 -43.8 0 1 91.20 47.39
  Q 91.73 47.64 91.71 48.22
  Q 91.69 48.64 91.36 48.90
  L 88.82 50.90
  Q 88.39 51.23 88.61 51.73
  L 89.06 52.72
  Q 89.31 53.27 88.91 53.72
  C 86.04 56.97 82.43 59.76 79.12 62.54
  Q 78.94 62.68 79.09 62.86
  L 79.09 62.87
  Q 79.20 63.02 79.35 62.91
  Q 83.36 60.03 87.94 58.08
  A 0.80 0.80 0.0 0 1 89.03 59.02
  Q 88.59 60.77 87.20 62.21
  Q 81.81 67.77 75.36 74.61
  Q 74.70 75.32 73.94 74.71
  L 73.66 74.49
  A 0.62 0.61 -51.8 0 1 73.56 73.62
  Q 77.06 69.22 80.65 65.57
  Q 80.88 65.34 80.71 65.06
  Q 80.69 65.01 80.64 65.00
  Q 80.52 64.95 80.42 65.02
  Q 74.04 69.03 67.75 72.42
  A 0.80 0.80 0.0 0 1 67.07 72.46
  Q 66.55 72.26 66.40 71.84
  Q 66.06 70.86 66.89 70.24
  Q 68.53 68.99 69.72 67.54
  Q 70.36 66.75 69.49 67.28
  Z"
/>
<path fill="#111111" d="
  M 160.57 109.13
  Q 160.94 110.16 161.30 109.13
  L 179.40 57.98
  A 0.91 0.90 9.4 0 1 180.26 57.37
  L 198.52 57.36
  Q 199.20 57.36 199.17 58.03
  C 199.02 61.93 199.68 65.76 198.20 69.62
  Q 184.87 104.45 172.51 137.29
  A 1.10 1.10 0.0 0 1 171.48 138.00
  L 150.50 138.00
  A 0.94 0.94 0.0 0 1 149.62 137.39
  Q 136.19 102.15 123.51 69.07
  C 122.19 65.64 122.83 61.62 122.71 57.97
  Q 122.70 57.36 123.30 57.36
  L 141.73 57.38
  Q 142.31 57.38 142.50 57.93
  L 160.57 109.13
  Z"
/>
<path fill="#111111" d="
  M 215.37 121.84
  L 215.36 74.02
  A 0.41 0.41 0.0 0 0 214.95 73.61
  L 209.27 73.67
  A 0.41 0.41 0.0 0 1 208.86 73.26
  L 208.87 57.78
  A 0.41 0.41 0.0 0 1 209.28 57.37
  L 242.59 57.36
  A 0.41 0.41 0.0 0 1 243.00 57.77
  L 243.00 73.24
  A 0.41 0.41 0.0 0 1 242.59 73.65
  L 236.91 73.64
  A 0.41 0.41 0.0 0 0 236.50 74.05
  L 236.50 121.84
  A 0.41 0.41 0.0 0 0 236.91 122.25
  L 242.59 122.24
  A 0.41 0.41 0.0 0 1 243.00 122.65
  L 243.00 137.59
  A 0.41 0.41 0.0 0 1 242.59 138.00
  L 209.26 138.00
  A 0.41 0.41 0.0 0 1 208.85 137.59
  L 208.88 122.66
  A 0.41 0.41 0.0 0 1 209.29 122.25
  L 214.96 122.25
  A 0.41 0.41 0.0 0 0 215.37 121.84
  Z"
/>
<path fill="#111111" d="
  M 257.13 57.37
  L 315.65 57.37
  Q 316.31 57.37 316.78 57.83
  L 327.82 68.93
  A 1.52 1.51 -67.4 0 1 328.25 69.99
  L 328.25 125.49
  A 2.61 2.58 68.2 0 1 327.47 127.35
  Q 322.38 132.32 317.85 136.96
  C 316.55 138.29 315.25 137.98 313.57 137.98
  Q 286.28 138.01 257.30 138.01
  Q 256.75 138.01 256.75 137.46
  L 256.75 57.74
  A 0.38 0.37 -0.0 0 1 257.13 57.37
  Z
  M 307.12 75.65
  A 0.40 0.40 0.0 0 0 306.72 75.25
  L 278.28 75.25
  A 0.40 0.40 0.0 0 0 277.88 75.65
  L 277.88 120.23
  A 0.40 0.40 0.0 0 0 278.28 120.63
  L 306.72 120.63
  A 0.40 0.40 0.0 0 0 307.12 120.23
  L 307.12 75.65
  Z"
/>
<path fill="#111111" d="
  M 365.64 116.20
  L 365.62 137.55
  A 0.45 0.45 0.0 0 1 365.17 138.00
  L 344.95 138.00
  A 0.45 0.45 0.0 0 1 344.50 137.55
  L 344.50 69.81
  A 0.45 0.45 0.0 0 1 344.63 69.49
  L 356.63 57.49
  A 0.45 0.45 0.0 0 1 356.95 57.36
  L 403.70 57.37
  A 0.45 0.45 0.0 0 1 404.02 57.50
  L 415.87 69.36
  A 0.45 0.45 0.0 0 1 416.00 69.68
  L 416.00 137.54
  A 0.45 0.45 0.0 0 1 415.55 137.99
  L 395.32 138.00
  A 0.45 0.45 0.0 0 1 394.87 137.55
  L 394.86 116.20
  A 0.45 0.45 0.0 0 0 394.41 115.75
  L 366.09 115.75
  A 0.45 0.45 0.0 0 0 365.64 116.20
  Z
  M 394.87 75.61
  A 0.36 0.36 0.0 0 0 394.51 75.25
  L 365.99 75.25
  A 0.36 0.36 0.0 0 0 365.63 75.61
  L 365.63 97.63
  A 0.36 0.36 0.0 0 0 365.99 97.99
  L 394.51 97.99
  A 0.36 0.36 0.0 0 0 394.87 97.63
  L 394.87 75.61
  Z"
/>
<path fill="#f19d71" d="
  M 43.36 66.60
  Q 41.81 65.09 40.72 62.91
  A 0.80 0.80 0.0 0 1 41.24 61.77
  Q 42.11 61.55 42.72 62.30
  Q 44.63 64.65 46.32 67.05
  Q 46.68 67.55 46.33 68.06
  Q 45.23 69.66 43.59 70.92
  A 0.59 0.59 0.0 0 0 43.56 71.83
  L 46.39 74.27
  Q 47.01 74.81 46.54 75.48
  L 44.64 78.18
  A 0.59 0.58 -55.8 0 0 44.79 79.01
  Q 45.69 79.60 46.26 80.51
  A 1.33 1.30 -55.9 0 1 46.44 81.49
  Q 45.92 84.03 44.91 86.60
  Q 44.75 87.01 44.36 87.17
  Q 43.97 87.34 43.63 87.08
  A 1.00 0.98 18.9 0 1 43.23 86.29
  Q 43.22 84.62 43.83 82.96
  C 44.93 79.97 39.55 79.94 43.49 75.93
  Q 44.16 75.25 43.45 74.61
  Q 42.62 73.87 41.76 73.14
  Q 39.16 70.95 43.12 68.57
  Q 44.51 67.74 43.36 66.60
  Z"
/>
<rect fill="#ffffff" x="277.88" y="75.25" width="29.24" height="45.38" rx="0.40"/>
<rect fill="#ffffff" x="365.63" y="75.25" width="29.24" height="22.74" rx="0.36"/>
<path fill="#f19d71" d="
  M 83.95 104.45
  A 0.29 0.29 0.0 0 0 83.43 104.45
  C 81.07 109.37 74.77 109.68 70.00 108.65
  C 64.37 107.43 63.24 100.54 67.61 97.08
  C 69.45 95.62 71.56 95.87 73.77 95.50
  C 78.22 94.75 80.96 91.94 81.73 87.25
  C 82.29 83.84 77.81 83.48 75.48 83.72
  A 1.96 1.96 0.0 0 0 73.79 86.15
  C 74.43 88.62 75.59 92.71 72.51 94.02
  C 69.11 95.46 66.96 92.19 67.56 89.04
  C 68.67 83.16 73.38 80.44 79.12 81.35
  Q 80.41 81.56 81.67 81.38
  C 88.19 80.46 90.40 86.41 90.43 91.67
  Q 90.45 97.02 90.70 102.35
  Q 90.84 105.29 92.89 106.68
  Q 95.92 108.74 92.26 108.98
  Q 86.30 109.38 83.95 104.45
  Z
  M 83.77 84.66
  C 86.59 89.69 85.56 95.45 85.80 100.98
  Q 85.91 103.59 87.70 105.36
  Q 89.31 106.95 88.73 104.77
  C 87.12 98.69 89.55 90.54 86.16 85.29
  Q 85.66 84.53 84.80 84.24
  L 84.26 84.06
  Q 83.25 83.73 83.77 84.66
  Z
  M 70.79 86.77
  Q 69.56 88.86 70.07 91.22
  Q 70.29 92.26 71.37 92.03
  A 0.83 0.82 -5.8 0 0 72.02 91.24
  Q 72.05 88.99 71.65 86.92
  Q 71.41 85.71 70.79 86.77
  Z
  M 82.57 92.59
  C 80.37 95.64 77.35 97.12 73.70 98.22
  Q 73.12 98.39 73.02 98.98
  C 72.57 101.46 72.16 106.91 76.12 106.64
  C 82.82 106.20 83.45 98.07 83.06 92.73
  Q 83.01 91.99 82.57 92.59
  Z
  M 70.96 105.55
  Q 69.76 102.27 70.66 98.99
  A 0.46 0.46 0.0 0 0 69.99 98.47
  Q 66.35 100.58 67.79 104.10
  A 3.50 3.50 0.0 0 0 68.85 105.54
  Q 69.49 106.06 70.30 106.28
  Q 71.32 106.55 70.96 105.55
  Z"
/>
<path fill="#ffffff" d="
  M 83.77 84.66
  Q 83.25 83.73 84.26 84.06
  L 84.80 84.24
  Q 85.66 84.53 86.16 85.29
  C 89.55 90.54 87.12 98.69 88.73 104.77
  Q 89.31 106.95 87.70 105.36
  Q 85.91 103.59 85.80 100.98
  C 85.56 95.45 86.59 89.69 83.77 84.66
  Z"
/>
<path fill="#ffffff" d="
  M 70.79 86.77
  Q 71.41 85.71 71.65 86.92
  Q 72.05 88.99 72.02 91.24
  A 0.83 0.82 -5.8 0 1 71.37 92.03
  Q 70.29 92.26 70.07 91.22
  Q 69.56 88.86 70.79 86.77
  Z"
/>
<path fill="#ffffff" d="
  M 73.70 98.22
  C 77.35 97.12 80.37 95.64 82.57 92.59
  Q 83.01 91.99 83.06 92.73
  C 83.45 98.07 82.82 106.20 76.12 106.64
  C 72.16 106.91 72.57 101.46 73.02 98.98
  Q 73.12 98.39 73.70 98.22
  Z"
/>
<path fill="#ffffff" d="
  M 70.96 105.55
  Q 71.32 106.55 70.30 106.28
  Q 69.49 106.06 68.85 105.54
  A 3.50 3.50 0.0 0 1 67.79 104.10
  Q 66.35 100.58 69.99 98.47
  A 0.46 0.46 0.0 0 1 70.66 98.99
  Q 69.76 102.27 70.96 105.55
  Z"
/>
<path fill="#ffffff" d="
  M 53.43 101.83
  L 50.81 101.63
  Q 49.72 101.55 50.55 100.84
  C 52.40 99.26 56.64 98.69 56.01 102.67
  Q 55.79 104.05 55.09 105.07
  A 0.43 0.42 58.0 0 1 54.32 104.89
  L 53.94 102.31
  A 0.57 0.56 -1.2 0 0 53.43 101.83
  Z"
/>
<path fill="#ffffff" d="
  M 47.72 103.23
  Q 48.80 104.07 50.23 104.07
  Q 51.27 104.07 51.56 105.07
  L 52.35 107.76
  Q 52.53 108.35 52.09 108.79
  L 33.54 127.34
  A 0.81 0.81 0.0 0 1 32.39 127.34
  L 28.31 123.27
  A 0.66 0.66 0.0 0 1 28.31 122.34
  L 47.33 103.26
  A 0.29 0.29 0.0 0 1 47.72 103.23
  Z"
/>
<rect fill="#ffffff" x="-3.66" y="-1.09" transform="translate(27.82,127.95) rotate(44.9)" width="7.32" height="2.18" rx="0.88"/>
<path fill="#ffffff" d="
  M 27.08 132.52
  A 0.13 0.13 0.0 0 1 27.08 132.70
  L 27.04 132.74
  A 2.78 1.87 45.0 0 1 23.75 132.10
  L 23.51 131.86
  A 2.78 1.87 45.0 0 1 22.87 128.57
  L 22.91 128.53
  A 0.13 0.13 0.0 0 1 23.09 128.53
  L 27.08 132.52
  Z"
/>
</svg>
